<?xml version="1.0" encoding="UTF-8" ?>
<!DOCTYPE svg PUBLIC "-//W3C//DTD SVG 1.1//EN" "http://www.w3.org/Graphics/SVG/1.1/DTD/svg11.dtd">
<svg width="512pt" height="512pt" viewBox="0 0 512 512" xmlns="http://www.w3.org/2000/svg">
<rect style="fill:#fffdfd" x="0" y="0" width="512" height="512" rx="30" ry="30"/>
<path d="M 74.14 374.532 C 74.632 265.986 75.109 157.595 75.576 49.364 C 75.617 42.18 79.638 36.035 85.175 34.696 C 116.075 26.493 164.776 28.555 197.845 44.724 C 221.131 55.438 241.546 74.377 256.698 99.326 C 272.336 75.572 292.648 57.538 315.552 47.067 C 346.781 31.883 394.159 28.227 428.111 34.696 C 433.905 35.698 438.244 41.963 438.301 49.412 L 438.301 375.891 C 438.28 384.22 432.955 390.94 426.418 390.889 C 425.503 390.874 424.59 390.73 423.697 390.466 C 394.703 385.671 365.235 389.184 337.439 400.731 C 316.904 410.485 297.417 423.49 279.431 439.444 C 304.721 429.442 331.082 424.541 357.56 424.915 C 391.536 425.604 425.35 431.073 458.384 441.224 L 458.384 99.559 L 470.192 99.559 C 476.714 99.559 482 106.294 482 114.604 L 482 460.909 C 482 469.219 476.714 475.954 470.192 475.954 C 468.94 475.94 467.697 475.672 466.512 475.157 C 430.93 462.69 394.273 455.875 357.375 454.863 C 324.769 454.338 292.455 462.746 262.62 479.515 C 258.536 482.829 253.315 482.829 249.232 479.515 C 219.398 462.741 187.084 454.333 154.476 454.863 C 117.663 455.931 81.095 462.779 45.597 475.25 C 44.412 475.765 43.171 476.033 41.917 476.047 C 35.325 476.127 29.959 469.308 30 460.909 L 30 114.604 C 30 106.294 35.286 99.559 41.808 99.559 L 53.616 99.559 L 53.616 441.224 C 86.65 431.073 120.463 425.604 154.44 424.915 C 182.825 424.488 211.064 430.14 237.976 441.646 C 220.976 424.127 201.602 410.718 180.813 402.09 C 155.065 391.311 115.78 387.703 87.052 390.841 C 80.495 391.652 74.684 385.476 74.14 377.11 C 74.103 376.251 74.103 375.39 74.14 374.532 Z M 300.876 331.835 C 295.654 336.794 288.177 332.689 287.419 324.445 C 287.023 320.124 288.702 315.923 291.679 313.793 C 305.252 303.054 319.838 294.552 335.084 288.484 C 350.558 281.809 366.619 277.605 382.903 275.969 C 389.388 275.519 393.825 284.18 390.89 291.562 C 389.526 294.988 386.833 297.224 383.824 297.436 C 369.053 299.01 354.489 302.881 340.455 308.964 C 326.556 314.424 313.256 322.11 300.876 331.835 Z M 301.612 248.599 C 296.132 253.038 288.937 248.253 288.66 239.989 C 288.532 236.15 290.019 232.518 292.563 230.461 C 306.106 219.962 320.608 211.62 335.748 205.62 C 350.971 199.13 366.755 195.006 382.755 193.342 C 389.268 193.201 393.459 202.093 390.301 209.347 C 388.943 212.468 386.462 214.526 383.676 214.853 C 369.112 216.391 354.749 220.169 340.898 226.102 C 327.13 231.53 313.937 239.084 301.612 248.599 Z M 301.833 165.642 C 296.325 170.081 289.112 165.259 288.85 156.962 C 288.729 153.11 290.228 149.469 292.784 147.412 C 306.307 136.96 320.786 128.664 335.894 122.711 C 351.071 116.249 366.806 112.156 382.755 110.527 C 389.241 110.077 393.677 118.737 390.742 126.121 C 389.379 129.546 386.687 131.781 383.676 131.993 C 369.164 133.534 354.851 137.293 341.043 143.194 C 327.303 148.611 314.135 156.147 301.833 165.642 Z M 220.318 313.793 C 225.999 317.855 226.096 328.226 220.495 332.46 C 217.558 334.681 213.862 334.436 211.124 331.835 C 198.79 322.124 185.54 314.437 171.691 308.964 C 157.659 302.881 143.095 299.01 128.324 297.436 C 121.839 296.947 118.201 287.701 121.774 280.786 C 123.432 277.581 126.306 275.744 129.317 275.969 C 145.6 277.605 161.662 281.809 177.136 288.484 C 192.383 294.552 206.969 303.054 220.539 313.793 L 220.318 313.793 Z M 219.437 230.461 C 224.917 234.969 224.51 245.347 218.703 249.137 C 216.011 250.895 212.783 250.694 210.24 248.599 C 197.915 239.084 184.723 231.53 170.955 226.102 C 157.104 220.169 142.74 216.391 128.176 214.853 C 121.678 214.297 118.091 204.984 121.721 198.09 C 123.404 194.893 126.3 193.084 129.317 193.342 C 145.318 195.006 161.101 199.13 176.327 205.62 C 191.464 211.62 205.967 219.962 219.51 230.461 L 219.437 230.461 Z M 219.216 147.412 C 224.928 151.394 225.112 161.767 219.548 166.079 C 216.656 168.319 212.996 168.146 210.24 165.642 C 197.937 156.147 184.77 148.611 171.029 143.194 C 157.222 137.293 142.909 133.534 128.396 131.993 C 121.912 131.543 118.244 122.315 121.791 115.387 C 123.439 112.171 126.306 110.315 129.317 110.527 C 145.267 112.156 161.004 116.249 176.179 122.711 C 191.289 128.664 205.766 136.96 219.29 147.412 L 219.216 147.412 Z M 414.612 62.815 C 387.319 59.534 348.179 63.377 323.644 75.235 C 300.837 85.423 281.284 104.87 267.992 130.586 L 267.992 413.011 C 287.108 396.316 307.764 382.687 329.494 372.423 C 356.959 361.212 385.829 356.652 414.612 358.971 L 414.612 62.815 Z M 244.376 410.105 L 244.376 130.164 C 232.017 102.37 212.042 83.812 189.458 72.798 C 163.709 60.284 124.168 57.472 99.117 62.018 L 97.793 359.908 C 125.122 358.643 162.862 363.096 187.987 373.547 C 208.172 381.886 227.202 394.221 244.376 410.105 Z"/>
</svg>
