/* XPM */
static char *delete_action_xpm[] = {
/* columns rows colors chars-per-pixel */
"24 24 57 1",
"l c Black",
"m c #191A1A",
"0 c #DB2525",
"= c #F19C9C",
"v c #7B7F83",
"a c #B51F1F",
"r c #BA2020",
"4 c #EE8080",
"- c #E55353",
"5 c #E66969",
"i c #B62929",
"g c #D16F6F",
"9 c #E43434",
"1 c #E54A4A",
"% c #E85151",
"; c #E84E4E",
"O c #E96161",
"7 c #CF6363",
"@ c #EB8A8A",
"o c #D07070",
"3 c #ED7878",
"d c #C15E5E",
"w c #DB1E1E",
"8 c #CD5D5D",
", c #EC9191",
"q c #CC7979",
"  c None",
"& c #D79191",
"p c #CD8686",
"t c #C57272",
"h c #E19999",
"u c #AE1414",
"2 c #E97272",
"y c #B81616",
"+ c #E65C5C",
"# c #F09999",
". c #D58585",
"k c #C0C0C0",
"6 c #EA6D6D",
"b c #494C4F",
"< c #C96E6E",
"n c #626669",
"x c #B2B2B2",
"> c #F2A1A1",
"$ c #E85E5E",
"B c #C4CBD2",
"c c #8D8D8D",
": c #E66464",
"f c #BA4A4A",
"z c #313334",
"s c #C56B6B",
"* c #D58D8D",
"X c #D27D7D",
"e c #C91818",
"N c #93989E",
"M c #ACB2B8",
"j c #C05555",
/* pixels */
"                        ",
"       ..      .X       ",
"      oO+o    X@#X      ",
"     X$%$+&  *@==#.     ",
"     .-%;%:*.@=>=,*     ",
"      <1;;$22#==,*      ",
"       .-%O34445.       ",
"        X:O626:7        ",
"        X-O66O18        ",
"       .-$66O%90q       ",
"      71O66:19wert      ",
"     o1$665o80eyuip     ",
"     7$665*  <ruuas     ",
"      865X    daaf      ",
"       gh      <j       ",
"                        ",
"      klz        xc     ",
"      vzlk       xb     ",
"      zcbv  kbbnxzmc    ",
"     Mm Mm klM nbxb     ",
"     nn  mkNb    xb     ",
"     mllllnNb    xb     ",
"    cz   klBlk nbkz     ",
"    cc    nkkbbnk cc    "
};
