/* XPM */
static char *locslist_action_ball_xpm[] = {
/* columns rows colors chars-per-pixel */
"15 15 16 1",
"% c #F5DB00",
"+ c #E4CC00",
"X c #AB9D00",
"; c #9C8E00",
"# c #CAB600",
"O c #FFE208",
"$ c #686000",
"  c None",
"- c #A39400",
"* c #B0A000",
". c #C7B700",
"@ c #D2BD00",
"o c #FFE73C",
"& c #C1AE00",
": c #A69700",
"= c #978800",
/* pixels */
"               ",
"               ",
"               ",
"               ",
"      .XX      ",
"    .oO+@#$    ",
"    oO%@&**    ",
"   .O%+&*==$   ",
"   X+@&-===$   ",
"   X@&-;===$   ",
"    #*=====    ",
"    $:====$    ",
"      $$$      ",
"               ",
"               "
};
