/* XPM */ 
static const char * locslist_location_ball_closed_xpm[] = {
"15 15 13 1",
" 	c None",
"!	c black",
"#	c #C1C1C1",
"$	c #9F9F9F",
"%	c #D6D6D6",
"&	c #D9D9D9",
"'	c #D2D2D2",
"(	c #CECECE",
")	c #606060",
"*	c #C9C9C9",
"+	c #C6C6C6",
",	c #BFBFBF",
"-	c #B3B3B3",
"               ",
"               ",
"               ",
"               ",
"               ",
"      ##$      ",
"    #%&'($)    ",
"    %&%(*+)    ",
"   #&%'*+,-)   ",
"   #'(*,---)   ",
"   $(*+----)   ",
"    $+,---)    ",
"    ))---))    ",
"      )))      ",
"               "};