/* XPM */
static char *new_action_xpm[] = {
/* columns rows colors chars-per-pixel */
"24 24 65 1",
"M c Black",
"S c #191A1A",
"y c #5DD646",
"h c #80D577",
"c c #80CF77",
"C c #7B7F83",
"b c #3FAC30",
"o c #35C425",
", c #6AD958",
"l c #83CD7A",
"q c #70EA56",
"X c #52CC42",
"% c #76D869",
"n c #3BA92D",
"p c #6EEA55",
"9 c #69E350",
"# c #68D35A",
"6 c #86EE70",
": c #90D387",
"3 c #5DD24D",
"* c #62D652",
"w c #60D949",
"O c #5DCF53",
"5 c #7BEA66",
"  c None",
"; c #89E679",
"- c #96D58D",
"z c #9BD991",
"g c #2AA81C",
"d c #4BD038",
"f c #2AA519",
"a c #3EB82D",
"t c #46C938",
"e c #43BC2F",
"u c #53DB3C",
"v c #43BC32",
"1 c #91EE80",
"2 c #78D16E",
". c #78D170",
"& c #90D887",
"j c #50C543",
"m c #C0C0C0",
"> c #74CE6A",
"s c #33AE22",
"7 c #51C93B",
"Z c #494C4F",
"A c #626669",
"+ c #85D17A",
"i c #61E549",
"$ c #43C733",
"B c #B2B2B2",
"0 c #72EB58",
"x c #7ECD73",
"G c #C4CBD2",
"V c #8D8D8D",
"r c #40B430",
"< c #72E55A",
"@ c #8DD685",
"N c #313334",
"4 c #79E368",
"k c #88CC7F",
"8 c #4DBD3C",
"F c #93989E",
"D c #ACB2B8",
"= c #7EDE6F",
/* pixels */
"                        ",
"         .XoOO+         ",
"         @#$#%+         ",
"         &#X*=@         ",
"         -***;:         ",
"     .++@>*,<12&--:     ",
"     XX3XO,4565<378     ",
"     7XX3*990q9w7er     ",
"     tXXyuipp9y7ass     ",
"     t7duipq9w7esfg     ",
"     2h@&hq9y7j+@kl     ",
"         z9w7ex         ",
"         -y7asx         ",
"         @7esfl         ",
"         cvrbnk         ",
"                        ",
"      mMN        BV     ",
"      CNMm       BZ     ",
"      NVZC  mZZABNSV    ",
"     DS DS mMD AZBZ     ",
"     AA  SmFZ    BZ     ",
"     SMMMMAFZ    BZ     ",
"    VN   mMGMm AZmN     ",
"    VV    AmmZZAm VV    "
};
