/* XPM */
static char *rename_action_xpm[] = {
/* columns rows colors chars-per-pixel */
"24 24 96 2",
"`  c Black",
" . c #191A1A",
"V  c #EFF197",
"J  c #E4DFB6",
"L  c #BAAA57",
"e  c #E1D8C4",
"{  c #7B7F83",
"M  c #B6BC72",
"c  c #EEBD3A",
"E  c #CACC7C",
"8  c #F4E077",
"l  c #E1E38D",
"o  c #E8D56E",
",  c #D8D7D1",
"t  c #F7DE6E",
"b  c #DBBA58",
"3  c #F7DE71",
"O  c #E9CEAD",
"A  c #E4A02D",
"$  c #D85B4E",
"H  c #D0D181",
"N  c #BCBE78",
"h  c #F6FA98",
"s  c #F2BF2B",
"(  c #E6D885",
"D  c #949861",
"R  c #EAF286",
"r  c #F6FA9D",
"&  c #F6FAA2",
"T  c #DBE380",
"I  c #807F53",
"#  c #E2B57E",
")  c #E4D581",
">  c #E7EBB6",
"W  c #B8BB71",
"Y  c #C0C675",
"9  c #F1C02A",
"u  c #E7B218",
"   c None",
"G  c #B9BF70",
"n  c #CDD280",
"j  c #F0F192",
"p  c #E89F31",
"P  c #A49654",
"S  c #B78D3B",
"U  c #848759",
"2  c #E3BFB3",
"y  c #EFBA1E",
"6  c #B0B0B3",
"!  c #E7F084",
"1  c #B03D3E",
"0  c #E0B439",
".  c #EBDB76",
"-  c #CD3F3F",
"B  c #B1AB82",
"~  c #EFF887",
"*  c #E6E3AC",
"m  c #BAC075",
"4  c #D4CAA8",
"K  c #B7B067",
"+  c #E9D871",
"C  c #E2D768",
"v  c #ECA11F",
"<  c #C3989A",
"_  c #C0C0C0",
"i  c #E79A19",
"X  c #E9DB85",
"a  c #DAD598",
"q  c #C5B59A",
"%  c #D76D69",
"=  c #C04A49",
"Z  c #E7D25F",
":  c #F7FD9A",
"}  c #494C4F",
"|  c #626669",
"f  c #EA9B24",
"k  c #EBF292",
"]  c #B2B2B2",
"/  c #F1E9B5",
"7  c #B69A9C",
"o. c #C4CBD2",
"[  c #8D8D8D",
"w  c #B0AFAD",
"'  c #313334",
"5  c #C4C2C3",
"@  c #F8FEA6",
";  c #C56868",
"g  c #F4CC5D",
"^  c #F4FE87",
"F  c #A3A868",
"Q  c #D3D97D",
"x  c #DFD26C",
"X. c #93989E",
".. c #ACB2B8",
"d  c #E79C16",
"z  c #D2CC9D",
/* pixels */
"        . X . . . . . . . . . . o O             ",
"        + @ @ @ @ @ @ @ @ @ @ @ # $ %           ",
"        . @ & & & & & & & & & * = - - ;         ",
"        . @ @ & @ & @ : & & > , < 1 1 2         ",
"        . @ & & & & & @ : 3 4 5 6 7             ",
"        . @ @ & @ & @ : 8 9 0 q w e             ",
"        + @ & & & & r t y u i p a               ",
"        + @ & & & & t s u d f g h               ",
"        + @ @ & : t y u i f t r j               ",
"        + @ @ & 8 s u d f g h k l z             ",
"        + @ & & x c v f b n m M N B             ",
"        + @ & V C Z A S D D F G H J             ",
"        + & & K L P I U F Y T R j               ",
"        + @ r E W m Y Q ! ~ ^ ^ j               ",
"        o & r r r r h r h h r h j               ",
"        / X X X X X X ( ( ( ( ( )               ",
"          _ ` '                 ] [             ",
"          { ' ` _               ] }             ",
"          ' [ } {     _ } } | ] '  .[           ",
"        .. .  .. .  _ ` ..  | } ] }             ",
"        | |      ._ X.}         ] }             ",
"         .` ` ` ` | X.}         ] }             ",
"      [ '       _ ` o.` _   | } _ '             ",
"      [ [         | _ _ } } | _   [ [           "
};
